. 
  
http://www.torrentday.com/        :     The Hottest Private Tracker On The Net!!!
 
http://www.torrentday.com          :     Once & For all ;)


               www . TorrentDay . Com 

(((((((((((((= Enjoy No RAR releases =))))))))))))))))))))


...................................NFO:....................................

.[img]http://img7.imageshack.us/img7/6523/bigmommasposter.jpg[/img]

[color=blue][size=5][b]Big Mommas Like Father Like Son 2011 TS XViD AC3 Hive-CM8[/b][/size][/color]



[b]Thx Hive

CM8 Doing It Right The First Time :D

Sources
Video:cinedub
Audio:imagine
thx

Encode:
corrected aspect, added sharpness,chroma,denoise and corrected the black colour.
the source file was already too much brightened up so that black was grey or grainy. 
didnt like that and looked bad on my big tv. now it looks ok
took me 2hours extra because i had to resync audio onto the cinedub avi, didnt 
fit on various spots, and also cleaned it from noise and hiss
enjoy

Video: 688x368 @bitrate 1500 2pass
Audio: English AC3 2.0 Stereo
Sample: yes included[/b]
 
http://www.imdb.com/title/tt1464174/


General
Complete name                    : Big.Mommas.Like.Father.Like.Son.2011.TS.XViD.AC3.Hive-CM8.avi
Format                           : AVI
Format/Info                      : Audio Video Interleave
File size                        : 1.22 GiB
Duration                         : 1h 39mn
Overall bit rate                 : 1 765 Kbps
Writing application              : Nandub v1.0rc2
Writing library                  : Nandub build 1853/release

Video
ID                               : 0
Format                           : MPEG-4 Visual
Format profile                   : Advanced Simple@L5
Format settings, BVOP            : Yes
Format settings, QPel            : Yes
Format settings, GMC             : No warppoints
Format settings, Matrix          : Default (H.263)
Muxing mode                      : Packed bitstream
Codec ID                         : XVID
Codec ID/Hint                    : XviD
Duration                         : 1h 39mn
Bit rate                         : 1 500 Kbps
Width                            : 688 pixels
Height                           : 368 pixels
Display aspect ratio             : 1.870
Frame rate                       : 25.000 fps
Color space                      : YUV
Chroma subsampling               : 4:2:0
Bit depth                        : 8 bits
Scan type                        : Progressive
Bits/(Pixel*Frame)               : 0.237
Stream size                      : 1.04 GiB (85%)
Writing library                  : XviD 1.2.1 (UTC 2008-12-04)

Audio
ID                               : 1
Format                           : AC-3
Format/Info                      : Audio Coding 3
Mode extension                   : CM (complete main)
Codec ID                         : 2000
Duration                         : 1h 39mn
Bit rate mode                    : Constant
Bit rate                         : 256 Kbps
Channel(s)                       : 2 channels
Channel positions                : Front: L R
Sampling rate                    : 48.0 KHz
Bit depth                        : 16 bits
Video delay                      : 20ms
Stream size                      : 182 MiB (15%)
Alignment                        : Split accross interleaves
Interleave, duration             : 40 ms (1.00 video frame)
Interleave, preload duration     : 500 ms



Martin Lawrence ... Malcolm / Big Momma
Brandon T. Jackson ... Trent / Charmaine
Jessica Lucas        ... Haley
Michelle Ang        ... Mia
Portia Doubleday ... Jasmine
Emily Rios         ... Isabelle



FBI agent Malcolm Turner and his stepson Trent go undercover at an all-girls 
performing arts school after Trent witnesses a murder. 



[img]http://img10.imageshack.us/img10/4089/bbii.png[/img]
[img]http://img197.imageshack.us/img197/9438/56790941.png[/img]
[img]http://img10.imageshack.us/img10/4448/bbibibbibiibibii.png[/img]
[img]http://img541.imageshack.us/img541/259/bbibibbiibibii.png[/img]
[img]http://img842.imageshack.us/img842/1798/bbibibibbibiibibii.png[/img]
[img]http://img222.imageshack.us/img222/9407/bbibibibibii.png[/img]
[img]http://img824.imageshack.us/img824/3364/bbibibibii.png[/img]
[img]http://img541.imageshack.us/img541/6235/bbibibii.png[/img]
[img]http://img571.imageshack.us/img571/1300/bbibii.png[/img]





Greetz

iNK,LUSi,,MAGNET,CLASSiFiED,THC,LEGi0N,T0XiC,IMAGiNE,ViSiON,WBZ,FLAWL3SS,NOVA
Vik,Rapeseed,D2U,SAFC,goldadvance,MEMORY100,KaN1vE,Unevano,Pinnz,Wayne,Mr Hive
and all P2P groups 
Great Work Guys :D

CM8@hushmail.com